<svg width="103" height="47" fill="none" xmlns="http://www.w3.org/2000/svg"><path d="M14.595 47H4.379l.064-7.541h10.152c2.535 0 4.673-.57 6.413-1.708 1.74-1.16 3.05-2.847 3.931-5.06.903-2.213 1.354-4.887 1.354-8.024v-2.288c0-2.406-.258-4.523-.773-6.349-.495-1.826-1.236-3.362-2.224-4.608a9.3 9.3 0 0 0-3.642-2.804c-1.44-.644-3.093-.967-4.963-.967H4.186V.078H14.69c3.137 0 6.005.537 8.605 1.611 2.621 1.053 4.888 2.568 6.8 4.544 1.912 1.977 3.384 4.34 4.415 7.09 1.052 2.729 1.579 5.769 1.579 9.12v2.224c0 3.33-.527 6.37-1.58 9.12-1.03 2.75-2.502 5.113-4.414 7.09-1.89 1.955-4.157 3.47-6.8 4.544C20.675 46.474 17.774 47 14.595 47ZM9.857.078V47H.19V.078h9.668Zm51.627 26.33H49.432l-.065-6.64h10.12c1.782 0 3.243-.225 4.382-.676 1.139-.473 1.987-1.15 2.546-2.03.58-.903.87-1.999.87-3.288 0-1.46-.28-2.642-.838-3.544-.537-.903-1.386-1.558-2.546-1.966-1.138-.409-2.61-.613-4.415-.613h-6.703V47h-9.668V.078h16.371c2.729 0 5.167.258 7.316.774 2.17.515 4.007 1.3 5.51 2.352A10.467 10.467 0 0 1 75.761 7.2c.795 1.59 1.192 3.48 1.192 5.672 0 1.934-.44 3.717-1.321 5.35-.86 1.633-2.224 2.964-4.093 3.996-1.848 1.031-4.265 1.6-7.25 1.708l-2.805 2.481ZM61.065 47H46.79l3.77-7.541h10.506c1.698 0 3.083-.269 4.158-.806 1.074-.558 1.869-1.31 2.384-2.255.516-.946.774-2.03.774-3.255 0-1.375-.237-2.568-.71-3.578-.45-1.01-1.18-1.783-2.19-2.32-1.01-.559-2.342-.838-3.997-.838h-9.313l.064-6.638h11.602l2.224 2.61c2.857-.043 5.156.462 6.896 1.515 1.762 1.03 3.04 2.374 3.835 4.028a11.854 11.854 0 0 1 1.225 5.317c0 3.008-.656 5.543-1.966 7.606-1.31 2.04-3.234 3.577-5.769 4.608C67.77 46.484 64.696 47 61.065 47Zm41.927-23.783V30.5H84.784v-7.283h18.208Z" fill="#fff"/></svg>