<svg width="56" height="56" fill="none" xmlns="http://www.w3.org/2000/svg"><path d="M29.167 16.333a4.65 4.65 0 0 1 4.666-4.666H42a4.68 4.68 0 0 1 4.667 4.666v5.04C43.96 22.33 42 24.897 42 27.93v4.737H29.167V16.333ZM14 27.907v4.76h12.833V16.333a4.65 4.65 0 0 0-4.666-4.666H14a4.68 4.68 0 0 0-4.667 4.666v5.017C12.04 22.307 14 24.897 14 27.907Zm34.207-4.504c-2.287.374-3.874 2.544-3.874 4.877V35H11.667v-7a4.667 4.667 0 0 0-9.334 0v11.667A4.68 4.68 0 0 0 7 44.333V49h4.667v-4.667h32.666V49H49v-4.667a4.68 4.68 0 0 0 4.667-4.666V28c0-2.823-2.544-5.087-5.46-4.597Z" fill="#434343"/></svg>