<svg width="56" height="56" fill="none" xmlns="http://www.w3.org/2000/svg"><path d="m37.893 26.857 3.664-3.664-8.75-8.75-3.664 3.664-9.66-9.637a4.676 4.676 0 0 0-6.603 0l-4.433 4.433a4.676 4.676 0 0 0 0 6.604l9.636 9.636L7 40.25V49h8.75l11.107-11.107 9.636 9.637c2.217 2.217 5.204 1.4 6.604 0l4.433-4.433a4.676 4.676 0 0 0 0-6.604l-9.637-9.636ZM21.42 25.83l-9.66-9.637 4.41-4.433 2.963 2.963L16.38 17.5l3.29 3.29 2.777-2.777 3.383 3.384-4.41 4.433Zm18.387 18.41-9.637-9.637 4.433-4.433 3.384 3.383-2.777 2.777 3.29 3.29 2.777-2.777 2.963 2.964-4.433 4.433Zm8.516-27.813a2.323 2.323 0 0 0 0-3.29l-5.46-5.46c-1.096-1.097-2.613-.677-3.29 0l-4.27 4.27 8.75 8.75 4.27-4.27Z" fill="#434343"/></svg>